# xmcd CD database file
#
# Track frame offsets:
#	150
#	24807
#	40229
#	55324
#	83193
#	114533
#	153215
#	207847
#	217567
#	261944
#
# Disc length: 3805 seconds
#
# Revision: 0
# Processed by: cddbd v1.5.2PL0 Copyright (c) Steve Scherf et al.
# Submitted via: jetAudio 7
#
DISCID=770edb0a
DTITLE=Prismojeni Profesorji Bluesa - Krizanke Live CD2
DYEAR=1900
DGENRE=Blues
TTITLE0=Earth vs Space (Part2)
TTITLE1=Hot Summer Days
TTITLE2=Jule Impro
TTITLE3=Smartphone
TTITLE4=Ed Gene
TTITLE5=Framed Love
TTITLE6=Nigerian Space Programe
TTITLE7=F.T.P. (Fuck The Police)
TTITLE8=Dawn Behind The Gates
TTITLE9=Jam #35
EXTD=
EXTT0=
EXTT1=
EXTT2=
EXTT3=
EXTT4=
EXTT5=
EXTT6=
EXTT7=
EXTT8=
EXTT9=
PLAYORDER=
